<svg xmlns="http://www.w3.org/2000/svg" width="15.383" height="17.387" viewBox="0 0 15.383 17.387">
  <path id="add-user_5_" data-name="add-user (5)" d="M30.179,17.387a.679.679,0,0,1-.679-.679,6.187,6.187,0,0,1,6.18-6.18H36.7a6.168,6.168,0,0,1,2.035.343.679.679,0,0,1-.447,1.283,4.813,4.813,0,0,0-1.588-.267H35.68a4.828,4.828,0,0,0-4.822,4.822A.679.679,0,0,1,30.179,17.387Zm10.527-12.8a4.584,4.584,0,1,0-4.584,4.584A4.59,4.59,0,0,0,40.706,4.584Zm-1.358,0a3.226,3.226,0,1,1-3.226-3.226A3.23,3.23,0,0,1,39.348,4.584ZM44.2,13.312H42.166V11.274a.679.679,0,1,0-1.358,0v2.038H38.771a.679.679,0,0,0,0,1.358h2.038v2.038a.679.679,0,1,0,1.358,0V14.67H44.2a.679.679,0,0,0,0-1.358Z" transform="translate(-29.5)" fill="#fff"/>
</svg>
