<svg xmlns="http://www.w3.org/2000/svg" width="17.043" height="20.451" viewBox="0 0 17.043 20.451">
  <path id="iconmonstr-apple-os-1" d="M19.043,15c-.67,1.943-2.675,5.383-4.74,5.42-1.37.026-1.811-.812-3.377-.812s-2.055.787-3.351.838C5.383,20.534,2,15.484,2,11.08,2,7.035,4.819,5.03,7.282,4.993c1.321-.024,2.568.89,3.374.89s2.324-1.1,3.916-.938a4.779,4.779,0,0,1,3.74,2.026A4.515,4.515,0,0,0,19.043,15ZM14.593,0a4.525,4.525,0,0,0-4.1,4.713C12.72,4.886,14.855,2.391,14.593,0Z" transform="translate(-2)" fill="#828282"/>
</svg>
