<svg xmlns="http://www.w3.org/2000/svg" xmlns:xlink="http://www.w3.org/1999/xlink" width="12.7" height="18.459" viewBox="0 0 12.7 18.459">
  <defs>
    <clipPath id="clip-path">
      <path id="Path_34441" data-name="Path 34441" d="M0-.437H12.7V-18.9H0Z" transform="translate(0 18.896)" fill="none"/>
    </clipPath>
  </defs>
  <g id="Group_39937" data-name="Group 39937" transform="translate(0 18.896)">
    <g id="Group_39936" data-name="Group 39936" transform="translate(0 -18.896)" clip-path="url(#clip-path)">
      <g id="Group_39935" data-name="Group 39935" transform="translate(0 0)">
        <path id="Path_34440" data-name="Path 34440" d="M-.179-.232a.837.837,0,0,1,0-1.2L4.7-6.225a.836.836,0,0,0,0-1.2L2.273-9.811a.873.873,0,0,0-1.218,0l-8.547,8.4a.836.836,0,0,0,0,1.2L1.017,8.153a.874.874,0,0,0,1.219,0l2.45-2.409a.837.837,0,0,0,0-1.2ZM2.543,6.056a.874.874,0,0,1-1.222,0L-5.662-.813l7.023-6.9h0a.868.868,0,0,1,1.212,0,.832.832,0,0,1,0,1.191h0L-2.619-1.419a.837.837,0,0,0,0,1.2L2.545,4.853h0a.839.839,0,0,1,0,1.2" transform="translate(7.745 10.059)" fill="#0b1524"/>
      </g>
    </g>
  </g>
</svg>
