<svg xmlns="http://www.w3.org/2000/svg" width="16.167" height="13.028" viewBox="0 0 16.167 13.028">
  <path id="Path_34380" data-name="Path 34380" d="M1029.16,393l-4.2-4.2a.742.742,0,0,0-1.049,0l-2.615,2.615-2.629-2.629a.742.742,0,0,0-1.049,0l-4.186,4.186a.742.742,0,0,0,0,1.049l7.358,7.358a.742.742,0,0,0,1.049,0l7.326-7.326A.742.742,0,0,0,1029.16,393Zm-11.806-2.385a.738.738,0,0,1,1.044,0h0l2.367,2.367a.742.742,0,0,0,1.049,0l2.352-2.352h0a.744.744,0,1,1,1.052,1.052l-3.92,3.921-3.947-3.947h0A.738.738,0,0,1,1017.354,390.611Zm9.969,3.172-6.016,6.011-6.045-6.045h0a.738.738,0,0,1,1.043-1.045h0l4.471,4.471a.742.742,0,0,0,1.049,0l4.445-4.445h0a.744.744,0,0,1,1.052,1.052Z" transform="translate(-1013.21 -388.56)" fill="#ab987a"/>
</svg>
