<svg xmlns="http://www.w3.org/2000/svg" xmlns:xlink="http://www.w3.org/1999/xlink" width="256.066" height="256.066" viewBox="0 0 256.066 256.066">
  <defs>
    <filter id="Ellipse_1154" x="58.871" y="59.809" width="136.45" height="136.45" filterUnits="userSpaceOnUse">
      <feOffset input="SourceAlpha"/>
      <feGaussianBlur stdDeviation="10" result="blur"/>
      <feFlood flood-color="#a5b0d4" flood-opacity="0.302"/>
      <feComposite operator="in" in2="blur"/>
      <feComposite in="SourceGraphic"/>
    </filter>
  </defs>
  <g id="Group_38725" data-name="Group 38725" transform="translate(-59.905 -116.906)">
    <g id="_Clip_Group_" data-name="&lt;Clip Group&gt;" transform="translate(17.094 74.095)">
      <path id="_Compound_Path_" data-name="&lt;Compound Path&gt;" d="M492.666,365.093A128.033,128.033,0,1,1,364.633,237.06,127.961,127.961,0,0,1,492.666,365.093ZM274.4,274.858a127.686,127.686,0,1,0,90.235-37.346A126.761,126.761,0,0,0,274.4,274.858Z" transform="translate(-193.788 -194.248)" fill="#9f874e" fill-rule="evenodd" opacity="0.15"/>
      <path id="_Compound_Path_2" data-name="&lt;Compound Path&gt;" d="M618.432,526.536a92.356,92.356,0,1,1-92.356-92.356A92.3,92.3,0,0,1,618.432,526.536Zm-157.357-65a91.978,91.978,0,1,0,65-26.9A91.315,91.315,0,0,0,461.075,461.535Z" transform="translate(-355.231 -355.691)" fill="#9f874e" fill-rule="evenodd" opacity="0.4"/>
      <path id="_Compound_Path_3" data-name="&lt;Compound Path&gt;" d="M723.233,661.067a62.627,62.627,0,1,1-62.627-62.627A62.59,62.59,0,0,1,723.233,661.067Zm-124.8,0a62.174,62.174,0,1,0,62.174-62.174A62.244,62.244,0,0,0,598.432,661.067Z" transform="translate(-489.762 -490.222)" fill="#9f874e" fill-rule="evenodd"/>
    </g>
    <rect id="Rectangle_17328" data-name="Rectangle 17328" width="118" height="178" transform="translate(129 154)" fill="#fff"/>
    <g id="Group_38724" data-name="Group 38724" transform="translate(32.775 74.217)">
      <g transform="matrix(1, 0, 0, 1, 27.13, 42.69)" filter="url(#Ellipse_1154)">
        <circle id="Ellipse_1154-2" data-name="Ellipse 1154" cx="38.225" cy="38.225" r="38.225" transform="translate(88.87 89.81)" fill="#fa5645"/>
      </g>
      <path id="Path_9369" data-name="Path 9369" d="M43.719,15,24.2,36.959,12,27.2" transform="translate(126.366 143.523)" fill="none" stroke="#fff" stroke-linecap="round" stroke-linejoin="round" stroke-miterlimit="10" stroke-width="2"/>
    </g>
  </g>
</svg>
