<svg xmlns="http://www.w3.org/2000/svg" xmlns:xlink="http://www.w3.org/1999/xlink" width="19" height="19" viewBox="0 0 19 19">
  <defs>
    <clipPath id="clip-path">
      <rect id="Rectangle_17692" data-name="Rectangle 17692" width="19" height="19" transform="translate(0 -0.47)" fill="none"/>
    </clipPath>
  </defs>
  <g id="Cog" transform="translate(0 0.47)">
    <g id="Group_40156" data-name="Group 40156" clip-path="url(#clip-path)">
      <path id="Path_34504" data-name="Path 34504" d="M15.752,10.537h2.506V8.221H15.751a9.111,9.111,0,0,0-.774-2.256l1.773-1.772L14.565,2.009,12.792,3.781a9.056,9.056,0,0,0-2.254-.774V.5H8.221V3.008a9.061,9.061,0,0,0-2.255.774L4.192,2.009,2.008,4.193,3.781,5.966a9.127,9.127,0,0,0-.775,2.255H.5v2.316H3.006a9.127,9.127,0,0,0,.775,2.255L2.008,14.566l2.184,2.183,1.773-1.773a9.114,9.114,0,0,0,2.256.776v2.506h2.316V15.752a9.111,9.111,0,0,0,2.254-.775l1.774,1.773,2.183-2.183-1.773-1.773A9.127,9.127,0,0,0,15.752,10.537Z" transform="translate(-0.114 -0.114)" fill="none" stroke="#000" stroke-linecap="round" stroke-linejoin="round" stroke-width="1"/>
      <circle id="Ellipse_1247" data-name="Ellipse 1247" cx="3.474" cy="3.474" r="3.474" transform="translate(5.791 5.791)" fill="none" stroke="#000" stroke-linecap="round" stroke-linejoin="round" stroke-width="1"/>
    </g>
  </g>
</svg>
