<svg width="22" height="20" viewBox="0 0 22 20" fill="none" xmlns="http://www.w3.org/2000/svg">
<mask id="mask0_310_11045" style="mask-type:luminance" maskUnits="userSpaceOnUse" x="0" y="0" width="22" height="20">
<path d="M0.208008 19.995H21.385V0.582031H0.208008V19.995Z" fill="white"/>
</mask>
<g mask="url(#mask0_310_11045)">
<path d="M13.002 3.22895C13.002 3.81402 12.7695 4.37512 12.3558 4.78883C11.9421 5.20253 11.381 5.43495 10.796 5.43495C10.5063 5.43495 10.2194 5.37789 9.95176 5.26703C9.68412 5.15617 9.44093 4.99367 9.23608 4.78883C8.82238 4.37512 8.58996 3.81402 8.58996 3.22895C8.58996 2.64388 8.82238 2.08278 9.23608 1.66907C9.64979 1.25537 10.2109 1.02295 10.796 1.02295C11.381 1.02295 11.9421 1.25537 12.3558 1.66907C12.7695 2.08278 13.002 2.64388 13.002 3.22895ZM18.296 4.11095C18.2962 4.3729 18.2186 4.62902 18.0732 4.8469C17.9278 5.06478 17.7211 5.23464 17.4791 5.33497C17.2371 5.43531 16.9708 5.46161 16.7139 5.41056C16.457 5.3595 16.221 5.23338 16.0358 5.04816C15.8505 4.86293 15.7244 4.62693 15.6734 4.37C15.6223 4.11308 15.6486 3.84678 15.7489 3.60481C15.8493 3.36284 16.0191 3.15607 16.237 3.01067C16.4549 2.86526 16.711 2.78775 16.973 2.78795C17.3238 2.78821 17.6601 2.92769 17.9082 3.17574C18.1562 3.42379 18.2957 3.76015 18.296 4.11095ZM5.94296 4.11095C5.94296 4.46192 5.8036 4.79854 5.55552 5.04681C5.30744 5.29507 4.97093 5.43468 4.61996 5.43495C4.44609 5.43495 4.27392 5.4007 4.11329 5.33417C3.95265 5.26763 3.80669 5.1701 3.68375 5.04716C3.56081 4.92421 3.46328 4.77826 3.39674 4.61762C3.33021 4.45699 3.29596 4.28482 3.29596 4.11095C3.29622 3.75998 3.43583 3.42347 3.6841 3.17539C3.93237 2.9273 4.26899 2.78795 4.61996 2.78795C4.97076 2.78821 5.30712 2.92769 5.55517 3.17574C5.80322 3.42379 5.94269 3.76015 5.94296 4.11095Z" stroke="black" stroke-linejoin="round"/>
<path d="M15.208 16.1987C18.604 16.4847 20.949 17.0897 20.949 17.7887C20.949 18.7627 16.406 19.5537 10.801 19.5537C5.19599 19.5537 0.648987 18.7627 0.648987 17.7887C0.648987 17.0887 2.97399 16.4887 6.34899 16.2017" stroke="black" stroke-linecap="round" stroke-linejoin="round"/>
<path d="M13.002 15.1417H8.58996V9.40571C8.58996 9.11601 8.64702 8.82915 8.75788 8.56151C8.86874 8.29386 9.03124 8.05068 9.23608 7.84583C9.64979 7.43212 10.2109 7.19971 10.796 7.19971C11.0857 7.19971 11.3725 7.25677 11.6402 7.36763C11.9078 7.47849 12.151 7.64098 12.3558 7.84583C12.5607 8.05068 12.7232 8.29386 12.834 8.56151C12.9449 8.82915 13.002 9.11601 13.002 9.40571V15.1417ZM18.296 13.3767H15.649V8.52371C15.649 8.17256 15.7885 7.8358 16.0367 7.5875C16.285 7.3392 16.6218 7.19971 16.973 7.19971C17.3239 7.19997 17.6604 7.33958 17.9085 7.58785C18.1566 7.83612 18.296 8.17273 18.296 8.52371V13.3767ZM5.94296 13.3767H3.29596V8.52371C3.29596 8.34984 3.33021 8.17767 3.39674 8.01703C3.46328 7.8564 3.56081 7.71044 3.68375 7.5875C3.80669 7.46455 3.95265 7.36703 4.11329 7.30049C4.27392 7.23395 4.44609 7.19971 4.61996 7.19971C4.97093 7.19997 5.30744 7.33958 5.55552 7.58785C5.8036 7.83612 5.94296 8.17273 5.94296 8.52371V13.3767Z" stroke="black" stroke-linejoin="round"/>
</g>
</svg>
