<svg width="51" height="46" viewBox="0 0 51 46" fill="none" xmlns="http://www.w3.org/2000/svg">
<mask id="mask0_187_21239" style="mask-type:luminance" maskUnits="userSpaceOnUse" x="0" y="0" width="51" height="46">
<path d="M0.71582 45.7311H50.5508V0.0490723H0.71582V45.7311Z" fill="white"/>
</mask>
<g mask="url(#mask0_187_21239)">
<path d="M30.8249 6.27816C30.8249 7.30484 30.5204 8.30847 29.95 9.16212C29.3797 10.0158 28.5689 10.6811 27.6204 11.074C26.6719 11.4669 25.6281 11.5697 24.6212 11.3694C23.6142 11.1691 22.6893 10.6747 21.9633 9.94875C21.2373 9.22278 20.7429 8.29783 20.5426 7.29087C20.3423 6.28392 20.4451 5.24018 20.838 4.29165C21.2309 3.34312 21.8963 2.53239 22.7499 1.962C23.6036 1.39161 24.6072 1.08716 25.6339 1.08716C26.3156 1.08703 26.9907 1.22121 27.6206 1.48203C28.2504 1.74286 28.8227 2.12522 29.3048 2.60727C29.7868 3.08933 30.1692 3.66163 30.43 4.29149C30.6908 4.92135 30.825 5.59643 30.8249 6.27816ZM43.2839 8.35516C43.2839 8.97125 43.1012 9.5735 42.7589 10.0858C42.4166 10.598 41.9301 10.9973 41.3609 11.233C40.7918 11.4688 40.1654 11.5305 39.5612 11.4103C38.9569 11.2901 38.4019 10.9934 37.9662 10.5578C37.5306 10.1222 37.2339 9.56712 37.1137 8.96286C36.9935 8.35861 37.0552 7.73229 37.291 7.1631C37.5268 6.59391 37.926 6.10741 38.4383 5.76513C38.9505 5.42285 39.5528 5.24016 40.1689 5.24016C40.995 5.24042 41.7871 5.5687 42.3712 6.15281C42.9553 6.73693 43.2836 7.52909 43.2839 8.35516ZM14.2139 8.35516C14.2134 9.18105 13.885 9.97295 13.3009 10.5569C12.7168 11.1408 11.9248 11.4689 11.0989 11.4692C10.273 11.4689 9.48099 11.1408 8.8969 10.5569C8.31281 9.97295 7.98442 9.18105 7.98389 8.35516C7.98415 7.52909 8.31242 6.73693 8.89654 6.15281C9.48066 5.5687 10.2728 5.24042 11.0989 5.24016C11.9248 5.24069 12.7167 5.56908 13.3006 6.15317C13.8845 6.73726 14.2136 7.52926 14.2139 8.35516Z" stroke="black" stroke-linejoin="round"/>
<path d="M36.0149 36.7981C44.0049 37.4711 49.5149 38.8981 49.5149 40.5401C49.5149 42.8321 38.8249 44.6931 25.6359 44.6931C12.4469 44.6931 1.75391 42.8321 1.75391 40.5401C1.75391 38.8981 7.22491 37.4811 15.1639 36.8061" stroke="black" stroke-linecap="round" stroke-linejoin="round"/>
<path d="M30.8249 34.3101H20.4429V20.8101C20.4434 19.4338 20.9906 18.114 21.9641 17.1411C22.9375 16.1682 24.2576 15.6218 25.6339 15.6221C26.3156 15.6219 26.9907 15.7561 27.6206 16.0169C28.2504 16.2778 28.8227 16.6601 29.3048 17.1422C29.7868 17.6242 30.1692 18.1965 30.43 18.8264C30.6908 19.4563 30.825 20.1313 30.8249 20.8131V34.3101ZM43.2839 30.1571H37.0539V18.7371C37.0542 17.911 37.3824 17.1188 37.9665 16.5347C38.5507 15.9506 39.3428 15.6223 40.1689 15.6221C40.995 15.6223 41.7871 15.9506 42.3712 16.5347C42.9553 17.1188 43.2836 17.911 43.2839 18.7371V30.1571ZM14.2139 30.1571H7.98389V18.7371C7.98415 17.911 8.31242 17.1188 8.89654 16.5347C9.48066 15.9506 10.2728 15.6223 11.0989 15.6221C11.9248 15.6226 12.7167 15.951 13.3006 16.5351C13.8845 17.1192 14.2126 17.9112 14.2129 18.7371L14.2139 30.1571Z" stroke="black" stroke-linejoin="round"/>
</g>
</svg>
