<svg width="232" height="34" viewBox="0 0 232 34" fill="none" xmlns="http://www.w3.org/2000/svg">
<path d="M48.5721 3.62898C48.4817 3.37813 48.435 3.11361 48.4341 2.84697C48.4327 2.28143 48.632 1.73376 48.9967 1.30147C49.3613 0.869169 49.8675 0.580328 50.4252 0.486342C50.9829 0.392356 51.5558 0.499312 52.042 0.788222C52.5282 1.07713 52.896 1.52922 53.0801 2.06398L60.7631 25.298L68.4921 2.06398C68.648 1.59997 68.9442 1.19586 69.3397 0.907454C69.7353 0.619048 70.2106 0.460598 70.7001 0.453993C71.3431 0.465785 71.9565 0.726389 72.4113 1.18104C72.8662 1.6357 73.127 2.24898 73.139 2.89198C73.1375 3.1436 73.0908 3.39289 73.001 3.62797L63.293 31.784C63.1214 32.3199 62.7836 32.7872 62.3285 33.1182C61.8734 33.4492 61.3248 33.6267 60.7621 33.625C60.2007 33.6216 59.6545 33.4421 59.2006 33.1118C58.7467 32.7815 58.4079 32.3171 58.2321 31.784L48.5721 3.62898Z" fill="#0C121D"/>
<path d="M76.675 23.7341C76.5629 25.1163 76.8844 26.4991 77.595 27.6901C78.0191 28.2131 78.5616 28.6278 79.1777 28.8997C79.7937 29.1717 80.4657 29.2931 81.138 29.254C82.86 29.2056 84.5527 28.7968 86.107 28.054C86.4099 27.9121 86.7386 27.8335 87.073 27.823C87.6542 27.8267 88.2119 28.053 88.6313 28.4553C89.0508 28.8577 89.3001 29.4055 89.328 29.986C89.3504 30.4103 89.2489 30.8319 89.0358 31.1995C88.8227 31.5671 88.5073 31.8647 88.128 32.056C85.9452 33.0994 83.5542 33.6345 81.1349 33.6211C79.906 33.6844 78.6775 33.4882 77.5293 33.0452C76.3812 32.6022 75.3393 31.9223 74.4714 31.0499C73.6035 30.1775 72.9291 29.132 72.4921 27.9816C72.055 26.8312 71.8652 25.6017 71.935 24.373V18.573C71.8716 17.3482 72.0661 16.1236 72.506 14.9787C72.9459 13.8338 73.6214 12.7941 74.4887 11.9268C75.356 11.0595 76.3957 10.3841 77.5406 9.94414C78.6855 9.50422 79.9101 9.30964 81.1349 9.37303C82.3638 9.3248 83.5895 9.52845 84.7367 9.97145C85.884 10.4145 86.9284 11.0875 87.806 11.9491C88.6549 12.8261 89.32 13.864 89.7624 15.0016C90.2047 16.1393 90.4154 17.3539 90.3819 18.5741V20.736C90.3827 21.129 90.3059 21.5183 90.1559 21.8816C90.0058 22.2448 89.7856 22.5749 89.5077 22.8528C89.2298 23.1307 88.8997 23.351 88.5365 23.501C88.1732 23.651 87.784 23.7278 87.391 23.727L76.675 23.7341ZM85.646 19.3631C85.646 15.5441 84.082 13.75 81.138 13.75C78.238 13.75 76.675 15.4981 76.675 19.3631H85.646Z" fill="#0C121D"/>
<path d="M94.1591 16.2347C94.1379 15.3288 94.3006 14.428 94.6375 13.5868C94.9744 12.7456 95.4786 11.9815 96.1193 11.3406C96.76 10.6998 97.524 10.1957 98.3652 9.85862C99.2063 9.52158 100.107 9.35867 101.013 9.37974C102.173 9.38815 103.329 9.5114 104.464 9.74772C104.991 9.84575 105.468 10.1243 105.813 10.5357C106.157 10.947 106.347 11.4653 106.351 12.0017C106.357 12.2975 106.303 12.5914 106.192 12.8654C106.08 13.1394 105.913 13.3875 105.702 13.5945C105.491 13.8015 105.239 13.9631 104.963 14.069C104.687 14.175 104.392 14.2232 104.096 14.2107C103.832 14.2206 103.568 14.1895 103.314 14.1187C102.564 13.907 101.792 13.7835 101.014 13.7507C100.455 13.7572 99.9204 13.9822 99.525 14.3777C99.1295 14.7731 98.9045 15.3076 98.898 15.8667V31.2327C98.898 31.861 98.6484 32.4636 98.2042 32.9079C97.7599 33.3522 97.1574 33.6017 96.5291 33.6017C95.9008 33.6017 95.2982 33.3522 94.8539 32.9079C94.4096 32.4636 94.16 31.861 94.16 31.2327L94.1591 16.2347Z" fill="#0C121D"/>
<path d="M112.147 22.6303C110.818 22.2157 109.664 21.3727 108.865 20.2329C108.066 19.0931 107.667 17.7208 107.73 16.3303C107.73 12.2823 111.088 9.38329 115.689 9.38329C117.836 9.26997 119.98 9.66393 121.946 10.5333C122.388 10.6973 122.77 10.9919 123.042 11.378C123.313 11.7641 123.46 12.2235 123.464 12.6953C123.464 13.281 123.231 13.8427 122.817 14.2569C122.403 14.6712 121.842 14.904 121.256 14.9043C120.879 14.8937 120.506 14.8158 120.156 14.6743C118.714 14.0693 117.166 13.7565 115.602 13.7543C113.716 13.7543 112.474 14.6743 112.474 16.2383C112.503 16.7673 112.703 17.2726 113.043 17.679C113.382 18.0853 113.845 18.371 114.36 18.4933L118.869 19.9653C121.905 20.9773 123.746 23.0473 123.746 26.4063C123.746 30.4553 120.48 33.6303 115.557 33.6303C113.282 33.6817 111.022 33.2424 108.932 32.3423C108.44 32.1408 108.033 31.7744 107.781 31.3059C107.529 30.8374 107.447 30.2959 107.551 29.774C107.654 29.2522 107.935 28.7824 108.347 28.4452C108.758 28.1079 109.274 27.9241 109.806 27.9253C110.173 27.9518 110.532 28.0454 110.865 28.2013C112.349 28.9411 113.992 29.3041 115.65 29.2583C117.858 29.2583 119.008 28.4303 119.008 26.8663C119.008 25.1663 117.627 24.6123 115.926 24.0143L112.147 22.6303Z" fill="#0C121D"/>
<path d="M145.824 23.9639C145.868 25.2601 145.65 26.5518 145.184 27.7622C144.719 28.9726 144.014 30.0768 143.112 31.0092C142.211 31.9417 141.131 32.6831 139.937 33.1895C138.743 33.6959 137.46 33.9569 136.163 33.9569C134.866 33.9569 133.582 33.6959 132.388 33.1895C131.194 32.6831 130.114 31.9417 129.213 31.0092C128.311 30.0768 127.607 28.9726 127.141 27.7622C126.675 26.5518 126.457 25.2601 126.501 23.9639V19.0419C126.457 17.7457 126.675 16.4539 127.141 15.2436C127.607 14.0332 128.311 12.9289 129.213 11.9965C130.114 11.0641 131.194 10.3226 132.388 9.81619C133.582 9.30979 134.866 9.04883 136.163 9.04883C137.46 9.04883 138.743 9.30979 139.937 9.81619C141.131 10.3226 142.211 11.0641 143.112 11.9965C144.014 12.9289 144.719 14.0332 145.184 15.2436C145.65 16.4539 145.868 17.7457 145.824 19.0419V23.9639ZM141.085 18.6739C141.127 18.0166 141.029 17.3578 140.796 16.7415C140.564 16.1251 140.203 15.5654 139.737 15.0996C139.271 14.6338 138.712 14.2726 138.095 14.04C137.479 13.8075 136.82 13.7089 136.163 13.7509C133.034 13.7509 131.24 15.5449 131.24 18.6739V24.3739C131.24 27.4569 133.034 29.2509 136.163 29.2509C139.292 29.2509 141.085 27.4579 141.085 24.3739V18.6739Z" fill="#0C121D"/>
<path d="M145.125 3.62885C145.035 3.37796 144.988 3.11347 144.987 2.84684C144.986 2.28158 145.186 1.7344 145.551 1.30256C145.916 0.870718 146.422 0.58221 146.979 0.48829C147.537 0.39437 148.109 0.501142 148.595 0.789621C149.081 1.0781 149.449 1.52959 149.634 2.06385L157.314 25.3019L165.043 2.06785C165.199 1.60384 165.495 1.19973 165.891 0.911325C166.286 0.622919 166.762 0.464469 167.251 0.457864C167.894 0.469663 168.507 0.730295 168.962 1.18498C169.417 1.63966 169.677 2.25294 169.689 2.89585C169.688 3.14751 169.641 3.39688 169.551 3.63184L159.843 31.7879C159.672 32.3237 159.334 32.791 158.879 33.122C158.424 33.453 157.876 33.6305 157.313 33.6289C156.752 33.6255 156.206 33.446 155.752 33.1157C155.298 32.7854 154.959 32.321 154.783 31.7879L145.125 3.62885Z" fill="#0C121D"/>
<path d="M174.479 5.79107C173.951 5.79107 173.436 5.63462 172.997 5.34146C172.558 5.04829 172.216 4.63158 172.014 4.14407C171.812 3.65656 171.759 3.12014 171.862 2.6026C171.965 2.08506 172.219 1.60966 172.592 1.23654C172.966 0.863412 173.441 0.609289 173.959 0.506344C174.476 0.403399 175.013 0.456234 175.5 0.658169C175.988 0.860104 176.404 1.20208 176.697 1.64084C176.991 2.07959 177.147 2.59539 177.147 3.12307C177.146 3.83051 176.865 4.50883 176.365 5.00906C175.865 5.50929 175.186 5.79054 174.479 5.79107ZM172.086 11.7731C172.089 11.1395 172.343 10.5328 172.791 10.0847C173.239 9.63671 173.845 9.38351 174.479 9.38009C174.791 9.3788 175.101 9.44015 175.389 9.56054C175.678 9.68094 175.939 9.85792 176.158 10.081C176.376 10.3041 176.548 10.5688 176.663 10.8594C176.777 11.1501 176.833 11.4608 176.825 11.7731V31.2331C176.832 31.5454 176.777 31.856 176.662 32.1466C176.548 32.4371 176.376 32.7018 176.157 32.9248C175.939 33.1479 175.677 33.3249 175.389 33.4453C175.101 33.5658 174.791 33.6273 174.479 33.6261C173.845 33.6227 173.239 33.3694 172.791 32.9214C172.343 32.4734 172.089 31.8667 172.086 31.2331V11.7731Z" fill="#0C121D"/>
<path d="M185.423 23.7341C185.311 25.1164 185.633 26.4992 186.343 27.6901C186.767 28.2131 187.31 28.6276 187.926 28.8996C188.542 29.1715 189.214 29.293 189.886 29.2541C191.608 29.2058 193.301 28.797 194.855 28.0541C195.158 27.9122 195.487 27.8336 195.821 27.8231C196.402 27.8268 196.96 28.0531 197.379 28.4554C197.799 28.8577 198.048 29.4055 198.076 29.9861C198.098 30.4104 197.997 30.832 197.784 31.1996C197.571 31.5671 197.255 31.8647 196.876 32.0561C194.693 33.0995 192.302 33.6346 189.883 33.6211C188.654 33.6845 187.426 33.4882 186.277 33.0452C185.129 32.6022 184.087 31.9224 183.219 31.0499C182.352 30.1775 181.677 29.1321 181.24 27.9817C180.803 26.8313 180.613 25.6017 180.683 24.3731V18.5731C180.619 17.3482 180.814 16.1236 181.254 14.9786C181.694 13.8336 182.369 12.7938 183.236 11.9265C184.104 11.0592 185.144 10.3837 186.289 9.94386C187.434 9.504 188.658 9.30954 189.883 9.37309C191.112 9.3248 192.338 9.52845 193.485 9.97145C194.632 10.4145 195.677 11.0875 196.554 11.9491C197.403 12.8261 198.069 13.8639 198.511 15.0015C198.954 16.1392 199.164 17.3539 199.131 18.5741V20.7361C199.132 21.1291 199.055 21.5183 198.905 21.8816C198.755 22.2448 198.535 22.5749 198.257 22.8528C197.98 23.1307 197.65 23.351 197.286 23.501C196.923 23.6511 196.534 23.7279 196.141 23.7271L185.423 23.7341ZM194.394 19.3631C194.394 15.5441 192.83 13.7501 189.886 13.7501C186.986 13.7501 185.424 15.4981 185.424 19.3631H194.394Z" fill="#0C121D"/>
<path d="M216.246 18.4898L212.427 31.6479C212.274 32.208 211.944 32.7035 211.486 33.06C211.028 33.4166 210.466 33.6149 209.886 33.6252C209.305 33.6356 208.737 33.4575 208.266 33.1175C207.796 32.7776 207.448 32.2942 207.275 31.7398L201.155 12.4629C201.08 12.2414 201.048 12.0073 201.063 11.7738C201.06 11.2051 201.261 10.6541 201.629 10.2206C201.997 9.78716 202.509 9.49985 203.07 9.41077C203.632 9.32168 204.207 9.4367 204.691 9.73499C205.176 10.0333 205.537 10.4951 205.71 11.0368L209.805 25.0229L213.67 11.3589C213.827 10.7943 214.163 10.296 214.627 9.93921C215.092 9.5824 215.66 9.38644 216.246 9.38086C216.805 9.4173 217.342 9.61489 217.791 9.94977C218.24 10.2846 218.583 10.7424 218.777 11.2679L222.641 25.0238L226.736 11.0378C226.909 10.4961 227.271 10.0343 227.755 9.73599C228.239 9.43771 228.814 9.32269 229.376 9.41177C229.938 9.50086 230.449 9.78814 230.817 10.2216C231.185 10.6551 231.386 11.2061 231.383 11.7748C231.398 12.0083 231.367 12.2424 231.291 12.4638L225.173 31.6938C225.016 32.2503 224.682 32.7403 224.221 33.0893C223.76 33.4382 223.198 33.6271 222.62 33.6271C222.042 33.6271 221.479 33.4382 221.018 33.0893C220.557 32.7403 220.223 32.2503 220.066 31.6938L216.246 18.4898Z" fill="#0C121D"/>
<path d="M40.71 11.6964L29.979 0.964417C29.624 0.609443 29.1425 0.410004 28.6405 0.410004C28.1385 0.410004 27.657 0.609443 27.302 0.964417L20.628 7.6384L13.917 0.928406C13.562 0.573432 13.0805 0.374023 12.5785 0.374023C12.0765 0.374023 11.595 0.573432 11.24 0.928406L0.559021 11.6134C0.204047 11.9684 0.00463867 12.4499 0.00463867 12.9519C0.00463867 13.4539 0.204047 13.9354 0.559021 14.2904L19.34 33.0714C19.695 33.4264 20.1765 33.6258 20.6785 33.6258C21.1806 33.6258 21.662 33.4264 22.017 33.0714L40.717 14.3714C41.0704 14.0156 41.2682 13.534 41.2669 13.0325C41.2656 12.5309 41.0653 12.0504 40.71 11.6964ZM10.578 5.61041C10.753 5.43537 10.9607 5.29652 11.1893 5.20178C11.418 5.10705 11.663 5.05829 11.9105 5.05829C12.158 5.05829 12.4031 5.10705 12.6317 5.20178C12.8603 5.29652 13.068 5.43537 13.243 5.61041L19.285 11.6524C19.64 12.0074 20.1215 12.2068 20.6235 12.2068C21.1256 12.2068 21.607 12.0074 21.962 11.6524L27.962 5.6524C28.3214 5.31216 28.7994 5.12558 29.2943 5.13235C29.7891 5.13913 30.2618 5.33871 30.6118 5.68866C30.9617 6.03861 31.1613 6.5113 31.1681 7.00616C31.1749 7.50103 30.9883 7.97901 30.648 8.33841L20.641 18.3454L10.575 8.2724C10.2228 7.91878 10.0253 7.43988 10.0259 6.9408C10.0264 6.44171 10.225 5.96324 10.578 5.61041ZM36.023 13.7104L20.668 29.0534L5.23804 13.6234C4.89412 13.2685 4.70337 12.7927 4.70697 12.2986C4.71057 11.8044 4.90822 11.3314 5.25726 10.9816C5.60631 10.6318 6.07884 10.4331 6.573 10.4284C7.06716 10.4237 7.54333 10.6133 7.89899 10.9564L19.31 22.3674C19.6652 22.7224 20.1468 22.9219 20.649 22.9219C21.1512 22.9219 21.6329 22.7224 21.988 22.3674L33.333 11.0214C33.6924 10.6812 34.1704 10.4946 34.6652 10.5013C35.1601 10.5081 35.6328 10.7077 35.9827 11.0576C36.3327 11.4076 36.5323 11.8803 36.5391 12.3752C36.5458 12.87 36.3592 13.348 36.019 13.7074L36.023 13.7104Z" fill="#9E8666"/>
</svg>
