<svg xmlns="http://www.w3.org/2000/svg" xmlns:xlink="http://www.w3.org/1999/xlink" width="17.008" height="15.591" viewBox="0 0 17.008 15.591">
  <defs>
    <clipPath id="clip-path">
      <rect id="Rectangle_18819" data-name="Rectangle 18819" width="17.008" height="15.591" transform="translate(0 0)" fill="none" stroke="#7f7f7f" stroke-width="0.75"/>
    </clipPath>
  </defs>
  <g id="Group_43217" data-name="Group 43217" transform="translate(0 0)">
    <g id="Group_42866" data-name="Group 42866" clip-path="url(#clip-path)">
      <path id="Path_35829" data-name="Path 35829" d="M10.276.354H3.189A2.834,2.834,0,0,0,.355,3.189V6.023A2.834,2.834,0,0,0,3.189,8.858H3.9v2.835L7.087,8.858h3.189a2.835,2.835,0,0,0,2.835-2.835V3.189A2.835,2.835,0,0,0,10.276.354Z" fill="none" stroke="#7f7f7f" stroke-linecap="round" stroke-linejoin="round" stroke-width="0.75"/>
      <path id="Path_35830" data-name="Path 35830" d="M8.15,11.339a1.772,1.772,0,0,0,1.772,1.772h1.771l2.126,2.126V13.111h1.063a1.772,1.772,0,0,0,1.772-1.772V9.922A1.772,1.772,0,0,0,14.882,8.15" fill="none" stroke="#7f7f7f" stroke-linecap="round" stroke-linejoin="round" stroke-width="0.75"/>
    </g>
  </g>
</svg>
