<svg xmlns="http://www.w3.org/2000/svg" width="14.061" height="10.571" viewBox="0 0 14.061 10.571">
  <path id="envelope_2_" data-name="envelope (2)" d="M12.652,59.882H1.309A1.31,1.31,0,0,0,0,61.191v7.853a1.31,1.31,0,0,0,1.309,1.309H12.652a1.31,1.31,0,0,0,1.309-1.309V61.191A1.31,1.31,0,0,0,12.652,59.882Zm0,.873a.434.434,0,0,1,.167.034L6.98,65.849,1.142,60.788a.434.434,0,0,1,.167-.034Zm0,8.726H1.309a.437.437,0,0,1-.436-.436V61.71l5.822,5.046a.437.437,0,0,0,.572,0l5.822-5.046v7.334A.437.437,0,0,1,12.652,69.48Z" transform="translate(0.05 -59.832)" fill="#474461" stroke="#fff" stroke-width="0.1"/>
</svg>
