<svg xmlns="http://www.w3.org/2000/svg" xmlns:xlink="http://www.w3.org/1999/xlink" width="16" height="16" viewBox="0 0 16 16">
  <defs>
    <clipPath id="clip-path">
      <rect id="Rectangle_18769" data-name="Rectangle 18769" width="16" height="16" transform="translate(-0.41 -0.298)" fill="none"/>
    </clipPath>
  </defs>
  <g id="Group_42722" data-name="Group 42722" transform="translate(0.41 0.298)">
    <g id="Group_42721" data-name="Group 42721" transform="translate(0 0)" clip-path="url(#clip-path)">
      <rect id="Rectangle_18768" data-name="Rectangle 18768" width="15.668" height="15.668" transform="translate(-0.144 -0.102)" fill="none" stroke="#000" stroke-linejoin="round" stroke-width="1"/>
      <line id="Line_913" data-name="Line 913" x1="15.668" transform="translate(-0.144 11.479)" fill="none" stroke="#000" stroke-linejoin="round" stroke-width="1"/>
      <path id="Path_35805" data-name="Path 35805" d="M8.065,3.5A1.7,1.7,0,0,0,6.39,4.933a1.021,1.021,0,1,0-.368,1.973H8.065a1.7,1.7,0,0,0,0-3.406Z" transform="translate(-2.078 -1.558)" fill="none" stroke="#000" stroke-linejoin="round" stroke-width="1"/>
      <path id="Path_35806" data-name="Path 35806" d="M3.5,14.95s1.362-3.406,3.065-3.406,3.065,2.044,3.065,2.044l2.054-3.521a1.143,1.143,0,0,1,2.008.065L16.1,14.95" transform="translate(-1.6 -3.471)" fill="none" stroke="#000" stroke-linejoin="round" stroke-width="1"/>
    </g>
  </g>
</svg>
