<svg xmlns="http://www.w3.org/2000/svg" width="17.386" height="13.154" viewBox="0 0 17.386 13.154">
  <g id="gmail" transform="translate(0 -64)">
    <rect id="Rectangle_16946" data-name="Rectangle 16946" width="13.04" height="13.04" transform="translate(2.059 64.114)" fill="#eceff1"/>
    <path id="Path_33" data-name="Path 33" d="M256,153.688l6.52,5.149V148.672Z" transform="translate(-247.307 -81.797)" fill="#cfd8dc"/>
    <path id="Path_34" data-name="Path 34" d="M15.756,64h-.543l-6.52,5.149L2.173,64H1.63A1.631,1.631,0,0,0,0,65.63v9.78a1.631,1.631,0,0,0,1.63,1.63h.543V66.875l6.52,5.015,6.52-5.016V77.04h.543a1.631,1.631,0,0,0,1.63-1.63V65.63A1.631,1.631,0,0,0,15.756,64Z" fill="#f44336"/>
  </g>
</svg>
