<svg xmlns="http://www.w3.org/2000/svg" xmlns:xlink="http://www.w3.org/1999/xlink" width="17.386" height="17.386" viewBox="0 0 17.386 17.386">
  <defs>
    <linearGradient id="linear-gradient" y1="0.5" x2="1" y2="0.5" gradientUnits="objectBoundingBox">
      <stop offset="0" stop-color="#ff637b"/>
      <stop offset="1" stop-color="#f90217"/>
    </linearGradient>
    <linearGradient id="linear-gradient-2" x1="0.799" y1="1.737" x2="0.065" y2="-0.534" xlink:href="#linear-gradient"/>
    <linearGradient id="linear-gradient-3" x1="0.043" y1="0.309" x2="1.019" y2="0.694" gradientUnits="objectBoundingBox">
      <stop offset="0" stop-color="#ffd833"/>
      <stop offset="1" stop-color="#f2b631"/>
    </linearGradient>
    <linearGradient id="linear-gradient-4" x1="1.345" y1="0.738" x2="-0.149" y2="0.244" xlink:href="#linear-gradient-3"/>
    <linearGradient id="linear-gradient-5" x1="0.44" y1="0.241" x2="0.655" y2="0.79" gradientUnits="objectBoundingBox">
      <stop offset="0" stop-color="#28a265"/>
      <stop offset="1" stop-color="#28895e"/>
    </linearGradient>
    <linearGradient id="linear-gradient-6" x1="0.831" y1="1.379" x2="0.082" y2="-0.9" xlink:href="#linear-gradient-5"/>
    <linearGradient id="linear-gradient-7" x1="0.427" y1="0.134" x2="0.893" y2="0.685" gradientUnits="objectBoundingBox">
      <stop offset="0" stop-color="#7faef4"/>
      <stop offset="1" stop-color="#4c8df1"/>
    </linearGradient>
    <linearGradient id="linear-gradient-8" x1="1.023" y1="1.005" x2="0.265" y2="-0.088" xlink:href="#linear-gradient-7"/>
  </defs>
  <g id="google" transform="translate(0 0)">
    <path id="Path_25" data-name="Path 25" d="M74.642,4.847a5.459,5.459,0,0,1,7.521-.236.364.364,0,0,0,.492-.016l1.772-1.772a.36.36,0,0,0-.01-.519,8.68,8.68,0,0,0-12.054.264,9.863,9.863,0,0,0,.029,2.272S73.672,5.826,74.642,4.847Z" transform="translate(-69.829 0)" fill="url(#linear-gradient)"/>
    <path id="Path_26" data-name="Path 26" d="M100.012,46.224a5.459,5.459,0,0,1,7.521-.236.364.364,0,0,0,.492-.016l1.017-1.017c-.089-.068-.176-.14-.261-.216a7.354,7.354,0,0,0-4.966-1.9,7.206,7.206,0,0,0-5.059,2.13,4.548,4.548,0,0,0-.2,1.253S98.724,46.205,100.012,46.224Z" transform="translate(-95.199 -41.377)" fill="url(#linear-gradient-2)"/>
    <path id="Path_27" data-name="Path 27" d="M3.223,81.415A5.454,5.454,0,0,0,4.842,85.35l-.776,1.674-1.5.605A8.681,8.681,0,0,1,2.534,75.34l2.279,2.279A5.45,5.45,0,0,0,3.223,81.415Z" transform="translate(0 -72.772)" fill="url(#linear-gradient-3)"/>
    <path id="Path_28" data-name="Path 28" d="M44.605,110.383a5.454,5.454,0,0,0,1.619,3.934l-1.246,1.246a7.245,7.245,0,0,1-.04-10.234l1.256,1.256A5.45,5.45,0,0,0,44.605,110.383Z" transform="translate(-41.382 -101.739)" fill="url(#linear-gradient-4)"/>
    <path id="Path_29" data-name="Path 29" d="M85.181,368.954a5.481,5.481,0,0,1-7.706,0L75.2,371.228a8.637,8.637,0,0,0,12.237-.023l-.651-1.393Z" transform="translate(-72.633 -356.371)" fill="url(#linear-gradient-5)"/>
    <path id="Path_30" data-name="Path 30" d="M114.442,368.954a5.48,5.48,0,0,1-7.706,0L105.49,370.2a7.231,7.231,0,0,0,10.194,0Z" transform="translate(-101.894 -356.371)" fill="url(#linear-gradient-6)"/>
    <path id="Path_31" data-name="Path 31" d="M264.063,220.019a.31.31,0,0,0-.31-.31h-8.092a.278.278,0,0,0-.278.278v2.676a.278.278,0,0,0,.278.278h3.952a.524.524,0,0,1,.45.793,5.448,5.448,0,0,1-.835,1.064l0,0,2.252,2.252q.159-.16.323-.319a8.775,8.775,0,0,0,2.263-5.889Z" transform="translate(-246.677 -212.219)" fill="url(#linear-gradient-7)"/>
    <path id="Path_32" data-name="Path 32" d="M262.238,266.453a1.484,1.484,0,0,0-1.407-1.953h-5.447v1.427a.278.278,0,0,0,.278.278h3.952a.524.524,0,0,1,.451.793,5.451,5.451,0,0,1-.832,1.061l-.006.007,1.242,1.242A7.237,7.237,0,0,0,262.031,267Q262.145,266.732,262.238,266.453Z" transform="translate(-246.678 -255.483)" fill="url(#linear-gradient-8)"/>
  </g>
</svg>
