<svg xmlns="http://www.w3.org/2000/svg" width="19.215" height="13.301" viewBox="0 0 19.215 13.301">
  <g id="Group_37032" data-name="Group 37032" transform="translate(-331.997 -218)">
    <path id="Path_103" data-name="Path 103" d="M12.6,20.3a10.152,10.152,0,0,1-9.561-6.391.739.739,0,0,1,0-.517A10.152,10.152,0,0,1,12.6,7a10.152,10.152,0,0,1,9.561,6.391.739.739,0,0,1,0,.517A10.152,10.152,0,0,1,12.6,20.3Zm-8.068-6.65A8.7,8.7,0,0,0,12.6,18.821a8.7,8.7,0,0,0,8.068-5.172A8.7,8.7,0,0,0,12.6,8.477a8.7,8.7,0,0,0-8.068,5.172Z" transform="translate(329 211.001)" fill="#434b56"/>
    <circle id="Ellipse_134" data-name="Ellipse 134" cx="3.5" cy="3.5" r="3.5" transform="translate(338.104 220.959)" fill="#434b56"/>
  </g>
</svg>
