<svg xmlns="http://www.w3.org/2000/svg" width="15.498" height="18.625" viewBox="0 0 15.498 18.625">
  <g id="login" transform="translate(0.25 0.25)">
    <path id="Path_9369" data-name="Path 9369" d="M116.365,0H103.9a.566.566,0,0,0-.566.566v1.7h1.133V1.133H115.8v15.86H104.47V15.86h-1.133v1.7a.566.566,0,0,0,.566.566h12.461a.566.566,0,0,0,.566-.566V.566A.566.566,0,0,0,116.365,0Z" transform="translate(-101.933 0)" fill="#fff" stroke="#fff" stroke-width="0.5"/>
    <path id="Path_9370" data-name="Path 9370" d="M40.042,166.848l.8.8,3.8-3.8-3.8-3.8-.8.8,2.432,2.432H34.446v1.133h8.027Z" transform="translate(-34.446 -154.787)" fill="#fff" stroke="#fff" stroke-width="0.5"/>
  </g>
</svg>
