<svg xmlns="http://www.w3.org/2000/svg" width="22.374" height="18.03" viewBox="0 0 22.374 18.03">
  <path id="Path_34516" data-name="Path 34516" d="M1035.284,394.7l-5.819-5.819a1.027,1.027,0,0,0-1.452,0l-3.619,3.619-3.638-3.638a1.026,1.026,0,0,0-1.452,0l-5.793,5.793a1.027,1.027,0,0,0,0,1.452l10.183,10.183a1.026,1.026,0,0,0,1.452,0l10.138-10.138A1.027,1.027,0,0,0,1035.284,394.7Zm-16.338-3.3a1.022,1.022,0,0,1,1.445,0v0h0l3.276,3.276a1.027,1.027,0,0,0,1.452,0l3.255-3.255h0a1.03,1.03,0,0,1,1.456,1.456l-5.426,5.426-5.463-5.463h0A1.022,1.022,0,0,1,1018.945,391.4Zm13.8,4.39-8.325,8.319-8.366-8.366h0a1.021,1.021,0,0,1,1.443-1.446h0v0h0l6.187,6.187a1.027,1.027,0,0,0,1.452,0l6.151-6.152h0a1.03,1.03,0,1,1,1.456,1.456Z" transform="translate(-1013.21 -388.56)" fill="#0c121d"/>
</svg>
