<svg xmlns="http://www.w3.org/2000/svg" width="13.494" height="17.803" viewBox="0 0 13.494 17.803">
  <g id="padlock_1_" data-name="padlock (1)" transform="translate(-70.4 -11)">
    <g id="Group_17434" data-name="Group 17434" transform="translate(70.4 11)">
      <path id="Path_9375" data-name="Path 9375" d="M82.724,17.769H82.07V15.93a4.927,4.927,0,1,0-9.853,0v1.838h-.65A1.168,1.168,0,0,0,70.4,18.931v8.705A1.168,1.168,0,0,0,71.566,28.8H82.728a1.168,1.168,0,0,0,1.166-1.166V18.931A1.172,1.172,0,0,0,82.724,17.769ZM73.7,15.927a3.444,3.444,0,0,1,6.889,0v1.835H73.7ZM82.4,27.32H71.882V19.251H82.408V27.32Z" transform="translate(-70.4 -11)" fill="gray"/>
      <path id="Path_9376" data-name="Path 9376" d="M236.341,339.693a.74.74,0,0,0,.741-.741v-1.911a.741.741,0,1,0-1.482,0v1.911A.742.742,0,0,0,236.341,339.693Z" transform="translate(-229.598 -324.481)" fill="gray"/>
    </g>
  </g>
</svg>