<svg width="44" height="47" viewBox="0 0 44 47" fill="none" xmlns="http://www.w3.org/2000/svg">
<path d="M22.3659 3.70386C30.6089 3.70386 37.7719 8.32786 41.7089 15.7199C43.2013 18.681 43.9642 21.956 43.9339 25.2719C43.9339 29.5376 42.6689 33.7076 40.299 37.2544C37.9291 40.8012 34.5606 43.5657 30.6196 45.1981C26.6785 46.8305 22.3419 47.2576 18.1582 46.4254C13.9744 45.5932 10.1313 43.5391 7.11498 40.5227C4.09864 37.5064 2.04449 33.6633 1.21228 29.4796C0.380078 25.2958 0.807197 20.9592 2.43963 17.0181C4.07206 13.0771 6.83648 9.70864 10.3833 7.33872C13.9302 4.9688 18.1001 3.70386 22.3659 3.70386Z" fill="#26A21A"/>
<path d="M21.8776 33.5142V16.6392H24.7413V33.5142H21.8776ZM14.8719 26.5085V23.6449H31.7469V26.5085H14.8719Z" fill="white"/>
</svg>
