<svg xmlns="http://www.w3.org/2000/svg" width="11.85" height="16.23" viewBox="0 0 11.85 16.23">
  <g id="privacy_2_" data-name="privacy (2)" transform="translate(0 0)">
    <path id="Path_9371" data-name="Path 9371" d="M172.389,295.12a.476.476,0,0,0,.476-.475v-1.97a.476.476,0,0,0-.951,0v1.97A.476.476,0,0,0,172.389,295.12Zm0,0" transform="translate(-166.465 -282.937)" fill="#474461"/>
    <path id="Path_9372" data-name="Path 9372" d="M11.374,5.215H9.124V2.9A3.064,3.064,0,0,0,5.925,0a3.064,3.064,0,0,0-3.2,2.9V5.215H.475A.476.476,0,0,0,0,5.691v6.081A4.463,4.463,0,0,0,4.458,16.23H7.392a4.463,4.463,0,0,0,4.458-4.458V5.691a.476.476,0,0,0-.476-.475ZM3.677,2.9A2.117,2.117,0,0,1,5.925.951,2.117,2.117,0,0,1,8.173,2.9V5.215h-4.5ZM10.9,11.772a3.511,3.511,0,0,1-3.507,3.507H4.458A3.511,3.511,0,0,1,.951,11.772V6.166H10.9Zm0,0" transform="translate(0 0)" fill="#474461"/>
  </g>
</svg>
