<svg id="user_24_" data-name="user (24)" xmlns="http://www.w3.org/2000/svg" width="11.953" height="15.532" viewBox="0 0 11.953 15.532">
  <g id="Group_36549" data-name="Group 36549" transform="translate(0 9.404)">
    <path id="Path_24858" data-name="Path 24858" d="M70.346,316.128a.607.607,0,0,1-.607-.607,4.313,4.313,0,0,0-4.308-4.308h-.91a4.313,4.313,0,0,0-4.308,4.308.607.607,0,0,1-1.213,0A5.528,5.528,0,0,1,64.521,310h.91a5.528,5.528,0,0,1,5.521,5.521A.607.607,0,0,1,70.346,316.128Z" transform="translate(-59 -310)" fill="#474461"/>
  </g>
  <g id="Group_36550" data-name="Group 36550" transform="translate(1.82)">
    <path id="Path_24859" data-name="Path 24859" d="M123.1,8.191a4.1,4.1,0,1,1,4.1-4.1A4.1,4.1,0,0,1,123.1,8.191Zm0-6.977A2.882,2.882,0,1,0,125.977,4.1,2.885,2.885,0,0,0,123.1,1.213Z" transform="translate(-119)" fill="#474461"/>
  </g>
</svg>
